<svg width="335" height="334" viewBox="0 0 335 334" fill="none" xmlns="http://www.w3.org/2000/svg">
<g clip-path="url(#clip0)">
<path d="M41.375 41.7859H258.924V0.410889H0V259.335H41.375V41.7859Z" fill="#3F3D56"/>
<path d="M293.625 292.702H76.0759V334.076H335V75.1521H293.625V292.702Z" fill="#3F3D56"/>
<path d="M313.645 21.7656H22.6892V312.722H313.645V21.7656Z" fill="#F0304E"/>
<path d="M105.466 79.156H70.8728V82.0388H105.466V79.156Z" fill="white"/>
<path d="M151.591 79.156H116.998V82.0388H151.591V79.156Z" fill="white"/>
<path d="M218.616 105.822H184.023V108.705H218.616V105.822Z" fill="white"/>
<path d="M265.462 105.822H230.868V108.705H265.462V105.822Z" fill="white"/>
<path d="M265.462 79.156H163.843V82.0388H265.462V79.156Z" fill="white"/>
<path d="M172.492 105.822H70.8728V108.705H172.492V105.822Z" fill="white"/>
<path d="M172.492 132.488H70.8728V135.371H172.492V132.488Z" fill="white"/>
<path d="M265.462 132.488H194.833V135.371H265.462V132.488Z" fill="white"/>
<path d="M105.466 176.586H70.8728V179.469H105.466V176.586Z" fill="white"/>
<path d="M151.591 176.586H116.998V179.469H151.591V176.586Z" fill="white"/>
<path d="M218.616 203.252H184.023V206.135H218.616V203.252Z" fill="white"/>
<path d="M265.462 203.252H230.868V206.135H265.462V203.252Z" fill="white"/>
<path d="M265.462 176.586H163.843V179.469H265.462V176.586Z" fill="white"/>
<path d="M172.492 203.252H70.8728V206.135H172.492V203.252Z" fill="white"/>
<path d="M172.492 229.918H70.8728V232.801H172.492V229.918Z" fill="white"/>
<path d="M265.462 229.918H194.833V232.801H265.462V229.918Z" fill="white"/>
</g>
<defs>
<clipPath id="clip0">
<rect width="335" height="334" fill="white"/>
</clipPath>
</defs>
</svg>
